# xmcd CD database file
#
# Track frame offsets:
#	150
#	26961
#	49026
#	68305
#	87691
#	114663
#	139059
#	167101
#	195824
#
# Disc length: 3061 seconds
#
# Revision: 0
# Processed by: cddbd v1.5.2PL0 Copyright (c) Steve Scherf et al.
# Submitted via: CDex 1.70beta2
#
DISCID=750bf309
DTITLE=Jovino Santos Neto and Weber Lago - Live At Caramoor
DYEAR=2008
DGENRE=Jazz
TTITLE0=Navegante
TTITLE1=Alone Together
TTITLE2=Balaio (Basket)
TTITLE3=Lamentos (Laments)
TTITLE4=Choro Pra Nos (Choro For Us)
TTITLE5=Ser Feliz (Being Happy)
TTITLE6=O Fim Do Comeco (the End of the Beginning)
TTITLE7=Desafinado (Out of Tune)
TTITLE8=Wave
EXTD=YEAR: 2008
EXTT0=
EXTT1=
EXTT2=
EXTT3=
EXTT4=
EXTT5=
EXTT6=
EXTT7=
EXTT8=
PLAYORDER=
